<svg xmlns="http://www.w3.org/2000/svg" viewBox="0 0 64 64">
  <defs>
    <linearGradient id="calcGrad" x1="0%" y1="0%" x2="0%" y2="100%">
      <stop offset="0%" style="stop-color:#4a9eda;stop-opacity:1" />
      <stop offset="100%" style="stop-color:#2563a8;stop-opacity:1" />
    </linearGradient>
    <linearGradient id="calcScreen" x1="0%" y1="0%" x2="0%" y2="100%">
      <stop offset="0%" style="stop-color:#d4e7f5;stop-opacity:1" />
      <stop offset="100%" style="stop-color:#b8d4e8;stop-opacity:1" />
    </linearGradient>
  </defs>
  <rect x="10" y="6" width="44" height="52" rx="4" fill="url(#calcGrad)" stroke="#1a4d7a" stroke-width="2"/>
  <rect x="15" y="12" width="34" height="14" rx="2" fill="url(#calcScreen)" stroke="#8eb8d6" stroke-width="1"/>
  <g fill="#e8f4fa" stroke="#3a7eb3" stroke-width="0.5">
    <rect x="16" y="30" width="8" height="7" rx="1.5"/>
    <rect x="28" y="30" width="8" height="7" rx="1.5"/>
    <rect x="40" y="30" width="8" height="7" rx="1.5"/>
    <rect x="16" y="40" width="8" height="7" rx="1.5"/>
    <rect x="28" y="40" width="8" height="7" rx="1.5"/>
    <rect x="40" y="40" width="8" height="7" rx="1.5"/>
    <rect x="16" y="50" width="8" height="6" rx="1.5"/>
    <rect x="28" y="50" width="8" height="6" rx="1.5"/>
    <rect x="40" y="50" width="8" height="6" rx="1.5"/>
  </g>
  <ellipse cx="32" cy="12" rx="20" ry="3" fill="#fff" opacity="0.3"/>
</svg>
